<?xml version="1.0" encoding="UTF-8"?>
<svg width="40px" height="40px" viewBox="0 0 40 40" version="1.1" xmlns="http://www.w3.org/2000/svg" xmlns:xlink="http://www.w3.org/1999/xlink">
    <title>Avatar sizes@1.5x</title>
    <g id="--↳-2.1-UX-Design-Demo-" stroke="none" stroke-width="1" fill="none" fill-rule="evenodd">
        <g id="盛屯矿业-招标网（登录后）" transform="translate(-1640.000000, -23.000000)" fill-rule="nonzero">
            <g id="Avatar-sizes" transform="translate(1640.000000, 23.000000)">
                <rect fill="#D80018" x="0" y="0" width="40" height="40" rx="20"></rect>
                <g id="gerenyonghutouxiang" transform="translate(8.000000, 8.000000)" fill="#FFFFFF">
                    <path d="M23.9733333,22.9542857 C23.5619048,18.0857143 20.2361905,14.0571429 15.727619,12.6 C17.6133333,11.3828571 18.8647619,9.27428571 18.8647619,6.85714286 C18.8647619,3.06857143 15.7790476,0 11.9904762,0 C8.1847619,0 5.11619048,3.06857143 5.11619048,6.85714286 C5.11619048,9.27428571 6.36761905,11.3828571 8.25333333,12.6 C3.7447619,14.0571429 0.419047619,18.0857143 0.00761904762,22.9542857 C0.00761904762,23.04 -0.00952380952,23.1085714 0.00761904762,23.2285714 C0.0419047619,23.6571429 0.419047619,24 0.847619048,24 C1.32761905,24 1.7047619,23.6057143 1.7047619,23.1428571 C2.15047619,17.8457143 6.59047619,13.7142857 11.9904762,13.7142857 C17.3904762,13.7142857 21.8133333,17.8457143 22.2761905,23.1428571 C22.2761905,23.6057143 22.6533333,24 23.1333333,24 C23.5619048,24 23.9390476,23.6571429 23.9733333,23.2285714 C23.9904762,23.1085714 23.9733333,23.04 23.9733333,22.9542857 Z M6.83047619,6.85714286 C6.83047619,4.01142857 9.1447619,1.71428571 11.9904762,1.71428571 C14.8361905,1.71428571 17.1504762,4.01142857 17.1504762,6.85714286 C17.1504762,9.70285714 14.8361905,12 11.9904762,12 C9.1447619,12 6.83047619,9.70285714 6.83047619,6.85714286 Z" id="形状"></path>
                </g>
            </g>
        </g>
    </g>
</svg>